M48
INCH,TZ
T1C0.0157
T2C0.0394
T3C0.0433
%
G90
G05
T1
X37200Y-34500
T2
X51000Y-35100
X52000Y-35100
X51000Y-34100
X52000Y-34100
X34400Y-30200
X34400Y-31200
X34400Y-32200
X34400Y-33200
X34400Y-34200
X34400Y-35200
X34400Y-36200
X34400Y-37200
X34400Y-38200
X34400Y-39200
X34400Y-40200
X34400Y-41200
X34400Y-42200
X34400Y-43200
X34400Y-44200
X35400Y-30200
X35400Y-31200
X35400Y-32200
X35400Y-33200
X35400Y-34200
X35400Y-35200
X35400Y-36200
X35400Y-37200
X35400Y-38200
X35400Y-39200
X35400Y-40200
X35400Y-41200
X35400Y-42200
X35400Y-43200
X35400Y-44200
X40745Y-25600
X41745Y-25600
X51000Y-40100
X52000Y-40100
T3
X58500Y-35941
X58500Y-38500
X60272Y-35941
X60272Y-38500
T0
M30
