G04 #@! TF.GenerationSoftware,KiCad,Pcbnew,(5.1.4)-1*
G04 #@! TF.CreationDate,2022-07-13T12:05:44+01:00*
G04 #@! TF.ProjectId,3Pi_M5Core2_Hat,3350695f-4d35-4436-9f72-65325f486174,rev?*
G04 #@! TF.SameCoordinates,Original*
G04 #@! TF.FileFunction,Legend,Top*
G04 #@! TF.FilePolarity,Positive*
%FSLAX46Y46*%
G04 Gerber Fmt 4.6, Leading zero omitted, Abs format (unit mm)*
G04 Created by KiCad (PCBNEW (5.1.4)-1) date 2022-07-13 12:05:44*
%MOMM*%
%LPD*%
G04 APERTURE LIST*
%ADD10C,0.150000*%
%ADD11C,0.120000*%
G04 APERTURE END LIST*
D10*
X104212000Y-126119380D02*
X104212000Y-125119380D01*
X104592952Y-125119380D01*
X104688190Y-125167000D01*
X104735809Y-125214619D01*
X104783428Y-125309857D01*
X104783428Y-125452714D01*
X104735809Y-125547952D01*
X104688190Y-125595571D01*
X104592952Y-125643190D01*
X104212000Y-125643190D01*
X105640571Y-126119380D02*
X105640571Y-125595571D01*
X105592952Y-125500333D01*
X105497714Y-125452714D01*
X105307238Y-125452714D01*
X105212000Y-125500333D01*
X105640571Y-126071761D02*
X105545333Y-126119380D01*
X105307238Y-126119380D01*
X105212000Y-126071761D01*
X105164380Y-125976523D01*
X105164380Y-125881285D01*
X105212000Y-125786047D01*
X105307238Y-125738428D01*
X105545333Y-125738428D01*
X105640571Y-125690809D01*
X106545333Y-125452714D02*
X106545333Y-126119380D01*
X106116761Y-125452714D02*
X106116761Y-125976523D01*
X106164380Y-126071761D01*
X106259619Y-126119380D01*
X106402476Y-126119380D01*
X106497714Y-126071761D01*
X106545333Y-126024142D01*
X107164380Y-126119380D02*
X107069142Y-126071761D01*
X107021523Y-125976523D01*
X107021523Y-125119380D01*
X108497714Y-125119380D02*
X108688190Y-125119380D01*
X108783428Y-125167000D01*
X108878666Y-125262238D01*
X108926285Y-125452714D01*
X108926285Y-125786047D01*
X108878666Y-125976523D01*
X108783428Y-126071761D01*
X108688190Y-126119380D01*
X108497714Y-126119380D01*
X108402476Y-126071761D01*
X108307238Y-125976523D01*
X108259619Y-125786047D01*
X108259619Y-125452714D01*
X108307238Y-125262238D01*
X108402476Y-125167000D01*
X108497714Y-125119380D01*
X109402476Y-125119380D02*
X109307238Y-125309857D01*
X109831047Y-126119380D02*
X109831047Y-125119380D01*
X110069142Y-125119380D01*
X110212000Y-125167000D01*
X110307238Y-125262238D01*
X110354857Y-125357476D01*
X110402476Y-125547952D01*
X110402476Y-125690809D01*
X110354857Y-125881285D01*
X110307238Y-125976523D01*
X110212000Y-126071761D01*
X110069142Y-126119380D01*
X109831047Y-126119380D01*
X110973904Y-126119380D02*
X110878666Y-126071761D01*
X110831047Y-126024142D01*
X110783428Y-125928904D01*
X110783428Y-125643190D01*
X110831047Y-125547952D01*
X110878666Y-125500333D01*
X110973904Y-125452714D01*
X111116761Y-125452714D01*
X111212000Y-125500333D01*
X111259619Y-125547952D01*
X111307238Y-125643190D01*
X111307238Y-125928904D01*
X111259619Y-126024142D01*
X111212000Y-126071761D01*
X111116761Y-126119380D01*
X110973904Y-126119380D01*
X111640571Y-125452714D02*
X111831047Y-126119380D01*
X112021523Y-125643190D01*
X112212000Y-126119380D01*
X112402476Y-125452714D01*
X113212000Y-126119380D02*
X113212000Y-125119380D01*
X113212000Y-126071761D02*
X113116761Y-126119380D01*
X112926285Y-126119380D01*
X112831047Y-126071761D01*
X112783428Y-126024142D01*
X112735809Y-125928904D01*
X112735809Y-125643190D01*
X112783428Y-125547952D01*
X112831047Y-125500333D01*
X112926285Y-125452714D01*
X113116761Y-125452714D01*
X113212000Y-125500333D01*
X103545333Y-126769380D02*
X103545333Y-127578904D01*
X103592952Y-127674142D01*
X103640571Y-127721761D01*
X103735809Y-127769380D01*
X103926285Y-127769380D01*
X104021523Y-127721761D01*
X104069142Y-127674142D01*
X104116761Y-127578904D01*
X104116761Y-126769380D01*
X104592952Y-127102714D02*
X104592952Y-127769380D01*
X104592952Y-127197952D02*
X104640571Y-127150333D01*
X104735809Y-127102714D01*
X104878666Y-127102714D01*
X104973904Y-127150333D01*
X105021523Y-127245571D01*
X105021523Y-127769380D01*
X105497714Y-127769380D02*
X105497714Y-127102714D01*
X105497714Y-126769380D02*
X105450095Y-126817000D01*
X105497714Y-126864619D01*
X105545333Y-126817000D01*
X105497714Y-126769380D01*
X105497714Y-126864619D01*
X105973904Y-127674142D02*
X106021523Y-127721761D01*
X105973904Y-127769380D01*
X105926285Y-127721761D01*
X105973904Y-127674142D01*
X105973904Y-127769380D01*
X107354857Y-127769380D02*
X107259619Y-127721761D01*
X107212000Y-127674142D01*
X107164380Y-127578904D01*
X107164380Y-127293190D01*
X107212000Y-127197952D01*
X107259619Y-127150333D01*
X107354857Y-127102714D01*
X107497714Y-127102714D01*
X107592952Y-127150333D01*
X107640571Y-127197952D01*
X107688190Y-127293190D01*
X107688190Y-127578904D01*
X107640571Y-127674142D01*
X107592952Y-127721761D01*
X107497714Y-127769380D01*
X107354857Y-127769380D01*
X107973904Y-127102714D02*
X108354857Y-127102714D01*
X108116761Y-127769380D02*
X108116761Y-126912238D01*
X108164380Y-126817000D01*
X108259619Y-126769380D01*
X108354857Y-126769380D01*
X109783428Y-127245571D02*
X109926285Y-127293190D01*
X109973904Y-127340809D01*
X110021523Y-127436047D01*
X110021523Y-127578904D01*
X109973904Y-127674142D01*
X109926285Y-127721761D01*
X109831047Y-127769380D01*
X109450095Y-127769380D01*
X109450095Y-126769380D01*
X109783428Y-126769380D01*
X109878666Y-126817000D01*
X109926285Y-126864619D01*
X109973904Y-126959857D01*
X109973904Y-127055095D01*
X109926285Y-127150333D01*
X109878666Y-127197952D01*
X109783428Y-127245571D01*
X109450095Y-127245571D01*
X110450095Y-127769380D02*
X110450095Y-127102714D01*
X110450095Y-127293190D02*
X110497714Y-127197952D01*
X110545333Y-127150333D01*
X110640571Y-127102714D01*
X110735809Y-127102714D01*
X111069142Y-127769380D02*
X111069142Y-127102714D01*
X111069142Y-126769380D02*
X111021523Y-126817000D01*
X111069142Y-126864619D01*
X111116761Y-126817000D01*
X111069142Y-126769380D01*
X111069142Y-126864619D01*
X111497714Y-127721761D02*
X111592952Y-127769380D01*
X111783428Y-127769380D01*
X111878666Y-127721761D01*
X111926285Y-127626523D01*
X111926285Y-127578904D01*
X111878666Y-127483666D01*
X111783428Y-127436047D01*
X111640571Y-127436047D01*
X111545333Y-127388428D01*
X111497714Y-127293190D01*
X111497714Y-127245571D01*
X111545333Y-127150333D01*
X111640571Y-127102714D01*
X111783428Y-127102714D01*
X111878666Y-127150333D01*
X112212000Y-127102714D02*
X112592952Y-127102714D01*
X112354857Y-126769380D02*
X112354857Y-127626523D01*
X112402476Y-127721761D01*
X112497714Y-127769380D01*
X112592952Y-127769380D01*
X113069142Y-127769380D02*
X112973904Y-127721761D01*
X112926285Y-127674142D01*
X112878666Y-127578904D01*
X112878666Y-127293190D01*
X112926285Y-127197952D01*
X112973904Y-127150333D01*
X113069142Y-127102714D01*
X113212000Y-127102714D01*
X113307238Y-127150333D01*
X113354857Y-127197952D01*
X113402476Y-127293190D01*
X113402476Y-127578904D01*
X113354857Y-127674142D01*
X113307238Y-127721761D01*
X113212000Y-127769380D01*
X113069142Y-127769380D01*
X113973904Y-127769380D02*
X113878666Y-127721761D01*
X113831047Y-127626523D01*
X113831047Y-126769380D01*
X148352190Y-99782380D02*
X148542666Y-99782380D01*
X148637904Y-99830000D01*
X148733142Y-99925238D01*
X148780761Y-100115714D01*
X148780761Y-100449047D01*
X148733142Y-100639523D01*
X148637904Y-100734761D01*
X148542666Y-100782380D01*
X148352190Y-100782380D01*
X148256952Y-100734761D01*
X148161714Y-100639523D01*
X148114095Y-100449047D01*
X148114095Y-100115714D01*
X148161714Y-99925238D01*
X148256952Y-99830000D01*
X148352190Y-99782380D01*
X149209333Y-100782380D02*
X149209333Y-99782380D01*
X149780761Y-100782380D01*
X149780761Y-99782380D01*
X150971238Y-99734761D02*
X150114095Y-101020476D01*
X151495047Y-99782380D02*
X151685523Y-99782380D01*
X151780761Y-99830000D01*
X151876000Y-99925238D01*
X151923619Y-100115714D01*
X151923619Y-100449047D01*
X151876000Y-100639523D01*
X151780761Y-100734761D01*
X151685523Y-100782380D01*
X151495047Y-100782380D01*
X151399809Y-100734761D01*
X151304571Y-100639523D01*
X151256952Y-100449047D01*
X151256952Y-100115714D01*
X151304571Y-99925238D01*
X151399809Y-99830000D01*
X151495047Y-99782380D01*
X152685523Y-100258571D02*
X152352190Y-100258571D01*
X152352190Y-100782380D02*
X152352190Y-99782380D01*
X152828380Y-99782380D01*
X153542666Y-100258571D02*
X153209333Y-100258571D01*
X153209333Y-100782380D02*
X153209333Y-99782380D01*
X153685523Y-99782380D01*
D11*
X128210000Y-87824000D02*
X128210000Y-90484000D01*
X130810000Y-87824000D02*
X128210000Y-87824000D01*
X130810000Y-90484000D02*
X128210000Y-90484000D01*
X130810000Y-87824000D02*
X130810000Y-90484000D01*
X132080000Y-87824000D02*
X133410000Y-87824000D01*
X133410000Y-87824000D02*
X133410000Y-89154000D01*
X128210000Y-85284000D02*
X128210000Y-87944000D01*
X130810000Y-85284000D02*
X128210000Y-85284000D01*
X130810000Y-87944000D02*
X128210000Y-87944000D01*
X130810000Y-85284000D02*
X130810000Y-87944000D01*
X132080000Y-85284000D02*
X133410000Y-85284000D01*
X133410000Y-85284000D02*
X133410000Y-86614000D01*
X128210000Y-103184000D02*
X128210000Y-101854000D01*
X129540000Y-103184000D02*
X128210000Y-103184000D01*
X130810000Y-103184000D02*
X130810000Y-100524000D01*
X130810000Y-100524000D02*
X133410000Y-100524000D01*
X130810000Y-103184000D02*
X133410000Y-103184000D01*
X133410000Y-103184000D02*
X133410000Y-100524000D01*
X107362000Y-66354000D02*
X107362000Y-63694000D01*
X104762000Y-66354000D02*
X107362000Y-66354000D01*
X104762000Y-63694000D02*
X107362000Y-63694000D01*
X104762000Y-66354000D02*
X104762000Y-63694000D01*
X103492000Y-66354000D02*
X102162000Y-66354000D01*
X102162000Y-66354000D02*
X102162000Y-65024000D01*
X154090000Y-96790000D02*
X154090000Y-92290000D01*
X150090000Y-98040000D02*
X151590000Y-98040000D01*
X147590000Y-92290000D02*
X147590000Y-96790000D01*
X151590000Y-91040000D02*
X150090000Y-91040000D01*
D10*
X126706380Y-89487333D02*
X127420666Y-89487333D01*
X127563523Y-89534952D01*
X127658761Y-89630190D01*
X127706380Y-89773047D01*
X127706380Y-89868285D01*
X126801619Y-89058761D02*
X126754000Y-89011142D01*
X126706380Y-88915904D01*
X126706380Y-88677809D01*
X126754000Y-88582571D01*
X126801619Y-88534952D01*
X126896857Y-88487333D01*
X126992095Y-88487333D01*
X127134952Y-88534952D01*
X127706380Y-89106380D01*
X127706380Y-88487333D01*
X126706380Y-86947333D02*
X127420666Y-86947333D01*
X127563523Y-86994952D01*
X127658761Y-87090190D01*
X127706380Y-87233047D01*
X127706380Y-87328285D01*
X126706380Y-86566380D02*
X126706380Y-85947333D01*
X127087333Y-86280666D01*
X127087333Y-86137809D01*
X127134952Y-86042571D01*
X127182571Y-85994952D01*
X127277809Y-85947333D01*
X127515904Y-85947333D01*
X127611142Y-85994952D01*
X127658761Y-86042571D01*
X127706380Y-86137809D01*
X127706380Y-86423523D01*
X127658761Y-86518761D01*
X127611142Y-86566380D01*
X126662380Y-102187333D02*
X127376666Y-102187333D01*
X127519523Y-102234952D01*
X127614761Y-102330190D01*
X127662380Y-102473047D01*
X127662380Y-102568285D01*
X126995714Y-101282571D02*
X127662380Y-101282571D01*
X126614761Y-101520666D02*
X127329047Y-101758761D01*
X127329047Y-101139714D01*
X100614380Y-65357333D02*
X101328666Y-65357333D01*
X101471523Y-65404952D01*
X101566761Y-65500190D01*
X101614380Y-65643047D01*
X101614380Y-65738285D01*
X100614380Y-64404952D02*
X100614380Y-64881142D01*
X101090571Y-64928761D01*
X101042952Y-64881142D01*
X100995333Y-64785904D01*
X100995333Y-64547809D01*
X101042952Y-64452571D01*
X101090571Y-64404952D01*
X101185809Y-64357333D01*
X101423904Y-64357333D01*
X101519142Y-64404952D01*
X101566761Y-64452571D01*
X101614380Y-64547809D01*
X101614380Y-64785904D01*
X101566761Y-64881142D01*
X101519142Y-64928761D01*
X147042380Y-96349523D02*
X146042380Y-96349523D01*
X146042380Y-95968571D01*
X146090000Y-95873333D01*
X146137619Y-95825714D01*
X146232857Y-95778095D01*
X146375714Y-95778095D01*
X146470952Y-95825714D01*
X146518571Y-95873333D01*
X146566190Y-95968571D01*
X146566190Y-96349523D01*
X146042380Y-95444761D02*
X147042380Y-95206666D01*
X146328095Y-95016190D01*
X147042380Y-94825714D01*
X146042380Y-94587619D01*
X147042380Y-93635238D02*
X146566190Y-93968571D01*
X147042380Y-94206666D02*
X146042380Y-94206666D01*
X146042380Y-93825714D01*
X146090000Y-93730476D01*
X146137619Y-93682857D01*
X146232857Y-93635238D01*
X146375714Y-93635238D01*
X146470952Y-93682857D01*
X146518571Y-93730476D01*
X146566190Y-93825714D01*
X146566190Y-94206666D01*
X147042380Y-92682857D02*
X147042380Y-93254285D01*
X147042380Y-92968571D02*
X146042380Y-92968571D01*
X146185238Y-93063809D01*
X146280476Y-93159047D01*
X146328095Y-93254285D01*
M02*
